<svg width="60" height="60" viewBox="0 0 60 60" fill="none" xmlns="http://www.w3.org/2000/svg">
<path d="M7.5 30C7.5 17.5736 17.5736 7.5 30 7.5C42.4264 7.5 52.5 17.5736 52.5 30C52.5 42.4264 42.4264 52.5 30 52.5C17.5736 52.5 7.5 42.4264 7.5 30Z" fill="#7E869E" fill-opacity="0.25"/>
<circle cx="30" cy="25" r="10" fill="#222222"/>
<path fill-rule="evenodd" clip-rule="evenodd" d="M46.2071 46.8306C46.2532 46.9272 46.231 47.0422 46.1529 47.1152C43.0302 50.0329 38.9689 51.9597 34.4605 52.4037C33.4827 52.5 32.3218 52.5 30.0001 52.5C27.6784 52.5 26.5176 52.5 25.5398 52.4037C21.0315 51.9597 16.9702 50.033 13.8476 47.1154C13.7694 47.0424 13.7473 46.9274 13.7933 46.8308C16.4022 41.357 22.6757 37.5 30.0003 37.5C37.3248 37.5 43.5982 41.3569 46.2071 46.8306Z" fill="#222222"/>
</svg>
