<svg width="34" height="34" viewBox="0 0 34 34" fill="none" xmlns="http://www.w3.org/2000/svg">
<g clip-path="url(#clip0_3_582)">
<path d="M32.2176 16.1088C32.2176 25.0056 25.0053 32.2179 16.1085 32.2179C7.2116 32.2179 -0.000717714 25.0056 -0.000717714 16.1088C-0.000717714 7.21191 7.2116 -0.000413466 16.1085 -0.000413466C25.0053 -0.000413466 32.2176 7.21191 32.2176 16.1088Z" fill="white"/>
<path d="M32.2176 16.1088C32.2176 25.0056 25.0053 32.2179 16.1085 32.2179C7.2116 32.2179 -0.000717714 25.0056 -0.000717714 16.1088C-0.000717714 7.21191 7.2116 -0.000413466 16.1085 -0.000413466C25.0053 -0.000413466 32.2176 7.21191 32.2176 16.1088Z" fill="white"/>
<path d="M13.531 20.9415V31.8957C13.531 32.0737 13.6752 32.2179 13.8532 32.2179H18.3637C18.5417 32.2179 18.6859 32.0737 18.6859 31.8957V20.9415C18.6859 20.7636 18.8302 20.6193 19.0081 20.6193H22.2299C22.4079 20.6193 22.5521 20.4751 22.5521 20.2971V16.4309C22.5521 16.253 22.4079 16.1088 22.2299 16.1088H19.0081C18.8302 16.1088 18.6859 15.9647 18.6859 15.7868V12.8869C18.6859 11.5982 20.2968 10.9538 20.9412 10.9538H22.8743C23.0522 10.9538 23.1965 10.8096 23.1965 10.6316V6.76544C23.1965 6.5875 23.0523 6.44325 22.8743 6.44325H18.6859C15.593 6.44325 13.531 9.66509 13.531 11.5982V15.7866C13.531 15.9645 13.3867 16.1088 13.2088 16.1088H9.98697C9.80903 16.1088 9.66478 16.253 9.66478 16.4309V20.2971C9.66478 20.4751 9.80903 20.6193 9.98697 20.6193H13.2088C13.3867 20.6193 13.531 20.7636 13.531 20.9415Z" fill="white"/>
<path d="M13.5287 20.9418V31.896C13.5287 32.074 13.673 32.2182 13.8509 32.2182H18.3615C18.5394 32.2182 18.6837 32.074 18.6837 31.896V20.9418C18.6837 20.7639 18.8279 20.6196 19.0058 20.6196H22.2277C22.4056 20.6196 22.5499 20.4754 22.5499 20.2974V16.4312C22.5499 16.2533 22.4056 16.109 22.2277 16.109H19.0058C18.8279 16.109 18.6837 15.965 18.6837 15.7871V12.8872C18.6837 11.5985 20.2946 10.9541 20.9389 10.9541H22.872C23.05 10.9541 23.1942 10.8099 23.1942 10.6319V6.76573C23.1942 6.58779 23.05 6.44354 22.8721 6.44354H18.6837C15.5907 6.44354 13.5287 9.66538 13.5287 11.5985V15.7869C13.5287 15.9648 13.3845 16.109 13.2065 16.109H9.98471C9.80677 16.109 9.66253 16.2533 9.66253 16.4312V20.2974C9.66253 20.4754 9.80677 20.6196 9.98471 20.6196H13.2065C13.3845 20.6196 13.5287 20.7639 13.5287 20.9418Z" fill="#0E8BF1"/>
</g>
<defs>
<clipPath id="clip0_3_582">
<rect width="34" height="34" rx="8" fill="white"/>
</clipPath>
</defs>
</svg>
