<svg width="28" height="28" viewBox="0 0 28 28" fill="none" xmlns="http://www.w3.org/2000/svg">
<g clip-path="url(#clip0_3_586)">
<path d="M28 14.1081C28 13.1349 27.9229 12.1565 27.7584 11.1991H14.56V16.7119H22.1181C21.8045 18.4899 20.5156 20.2797 19.04 21.2791L19.3211 24.6391L23.52 24.6391C26.1679 22.1458 28 18.4636 28 14.1081Z" fill="#4285F4"/>
<path d="M14.2184 27.9994C18.0028 27.9994 21.1942 26.7724 23.5195 24.6546L19.0395 21.2794C17.7815 22.1244 16.1158 22.5164 14.2236 22.5164C10.563 22.5164 7.27315 20.0779 6.1595 16.7994H1.6795V20.3681C4.06148 25.0466 8.9131 27.9994 14.2184 27.9994Z" fill="#34A853"/>
<path d="M6.16195 16.799C5.52007 15.0952 5.80007 12.9028 6.44195 11.199L6.72195 7.83899L1.68193 7.55899C-0.49144 11.4355 -0.541395 16.2825 1.63198 20.159L6.16195 16.799Z" fill="#FBBC04"/>
<path d="M14.4885 5.48049C16.5321 5.44996 18.5071 6.19284 19.9871 7.55647L24.0795 3.60296C21.4882 1.25222 18.0489 -0.0401724 14.4885 0.000532947C9.06892 0.000532947 4.11279 2.87848 1.6795 7.5596L6.44075 11.1996C7.57313 7.91773 10.749 5.48049 14.4885 5.48049Z" fill="#EA4335"/>
</g>
<defs>
<clipPath id="clip0_3_586">
<rect width="28" height="28" rx="8" fill="white"/>
</clipPath>
</defs>
</svg>
